<svg xmlns="http://www.w3.org/2000/svg" viewBox="0 0 500 150">
  <defs>
    <style>
      /* Define the modern style font and the specific yellow color */
      .logo-text {
        font-family: 'Helvetica Neue', Helvetica, Arial, sans-serif;
        font-weight: 800; /* Extra bold for modern feel */
        font-size: 60px;
        fill: #F5C518; /* A strong, golden yellow */
      }
      .logo-icon {
        fill: #F5C518;
      }
    </style>
  </defs>

  <g transform="translate(20, 25)">
    <path class="logo-icon" d="M 95.5,25 C 88.3,16.5 80.1,11.2 70.3,9.1 61.2,7.1 56.8,11.5 54.3,17 L 18.5,17 C 15.4,17 12.8,18.9 11.7,21.7 L 1.2,53.2 C -0.6,58.6 3.4,64 9.1,64 L 20.4,64 L 25.8,85.1 C 26.9,89.4 30.8,92.4 35.2,92.4 L 77.9,92.4 C 82.7,92.4 86.7,88.9 87.5,84.1 L 92.3,56 C 97.8,52.5 102.1,46.3 103.8,38.8 105.2,33 102.1,28.6 95.5,25 Z M 79.1,82.4 L 34.7,82.4 L 23.1,37 L 86.8,37 L 79.1,82.4 Z"/>
    <circle class="logo-icon" cx="72" cy="0" r="8"/>
    <rect class="logo-icon" x="30" y="42" width="18" height="35" rx="3" transform="rotate(-8 30 42)"/>
    <rect class="logo-icon" x="52" y="32" width="22" height="45" rx="3" transform="rotate(5 52 32)"/>
    <circle class="logo-icon" cx="40" cy="105" r="9"/>
    <circle class="logo-icon" cx="80" cy="105" r="9"/>
  </g>

  <text x="130" y="95" class="logo-text">HopNShoppe</text>
</svg>